<svg width="347" height="52" fill="#00c4cc" xmlns="http://www.w3.org/2000/svg"><path fill-rule="evenodd" clip-rule="evenodd" d="M227.285 2.366h-8.527c-.598 0-1.083.485-1.083 1.082v19.893h-18.219V3.448c0-.597-.485-1.082-1.083-1.082h-8.56c-.598 0-1.083.485-1.083 1.082v45.83c0 .597.485 1.081 1.083 1.081h8.56c.598 0 1.083-.484 1.083-1.081V31.944h18.219v17.334c0 .597.485 1.081 1.083 1.081h8.527c.598 0 1.084-.484 1.084-1.081V3.448c0-.597-.486-1.082-1.084-1.082Zm32.628 19.342c-1.231 1.09-3.022 1.633-5.373 1.633h-7.65V10.998h7.65c2.372 0 4.169.545 5.389 1.633 1.221 1.09 1.831 2.612 1.831 4.57 0 1.916-.616 3.419-1.847 4.507Zm4.064 8.731c2.746-1.251 4.846-2.952 6.297-5.103 1.45-2.152 2.175-4.96 2.175-8.43 0-3.116-.72-5.756-2.158-7.919-1.44-2.16-3.507-3.797-6.199-4.905-2.693-1.108-5.885-1.663-9.577-1.663h-17.281c-.598 0-1.083.483-1.083 1.08v45.78c0 .596.485 1.08 1.083 1.08h8.55c.597 0 1.082-.483 1.082-1.08V32.08h6.614l8.911 17.686c.184.364.557.593.965.593h9.04a1.08 1.08 0 0 0 .964-1.572l-9.383-18.348Zm-237.05-7.878-7.007-2.78c-4.145-1.623-7.14-2.794-7.14-5.665 0-2.857 2.389-4.562 6.39-4.562 3.372 0 6.261.945 9.453 3.125a1.077 1.077 0 0 0 1.446-.227l4.3-5.404a1.088 1.088 0 0 0-.15-1.501C30.2 2.053 24.677 0 19.171 0 8.996 0 1.323 6.358 1.323 14.79c0 8.529 6.962 12.213 9.954 13.401l7.283 3.061c3.89 1.625 6.46 2.699 6.46 5.654 0 1.779-.9 4.764-6.93 4.764-3.524 0-7.769-1.634-11.354-4.327a1.069 1.069 0 0 0-1.473.16L.249 43.602a1.073 1.073 0 0 0 .13 1.507c4.797 3.943 11.073 6.182 17.44 6.182 12.913 0 18.793-7.946 18.793-15.328 0-6.49-3.077-10.748-9.685-13.402Zm128.135-8.32a11.769 11.769 0 0 0-2.08-.163c-1.693 0-3.014.164-4.533 1.03-1.38.788-2.465 1.665-3.365 3.29l-.236-2.662c-.042-.563-.513-1-1.079-1h-7.573c-.597 0-1.082.484-1.082 1.08v33.462c0 .598.485 1.081 1.082 1.081h8.121a1.08 1.08 0 0 0 1.082-1.08v-20.16c0-1.683 1.161-3.79 2.489-4.759 1.21-.883 2.566-1.492 4.401-1.653.511-.045 1.31-.01 2.392.089.63.057 1.176-.43 1.184-1.062l.106-6.41a1.091 1.091 0 0 0-.909-1.083Zm24.553 28.282c-.493.044-1.018.066-1.575.066-1.319 0-2.253-.251-2.802-.757-.55-.504-.824-1.459-.824-2.864V22.803h4.885a1.08 1.08 0 0 0 1.081-1.08v-6.564c0-.597-.484-1.08-1.081-1.08h-4.885V6.994c0-.597-.484-1.081-1.082-1.081h-8.122c-.597 0-1.082.484-1.082 1.081v7.083h-3.796c-.598 0-1.082.484-1.082 1.08v6.564c0 .598.484 1.081 1.082 1.081h3.796v17.416c0 3.731.918 6.464 2.753 8.197 1.835 1.735 4.478 2.601 7.929 2.601 1.892 0 3.638-.228 5.236-.684.457-.13.763-.56.763-1.035v-5.703c0-.643-.554-1.13-1.194-1.072Zm-60.702-2.304c-.461.856-1.226 1.585-2.292 2.19-1.067.604-2.302.904-3.708.904-1.253 0-2.258-.334-3.017-1.003-.758-.67-1.137-1.542-1.137-2.618 0-1.535.527-2.803 1.583-3.802 1.054-1 2.68-1.498 4.878-1.498h3.693v5.827Zm3.313-24.708c-2.188-.955-4.699-1.433-7.533-1.433-3.055 0-5.753.506-8.093 1.515-2.34 1.01-4.143 2.393-5.407 4.149-1.026 1.426-1.636 2.982-1.829 4.669-.072.636.442 1.19 1.082 1.19h8.139c.529 0 .949-.395 1.04-.914.15-.859.527-1.547 1.127-2.065.803-.692 1.929-1.037 3.38-1.037 1.627 0 2.83.445 3.61 1.333.78.89 1.171 2.135 1.171 3.737v1.942h-3.857c-5.495 0-9.633 1.016-12.413 3.047-2.78 2.029-4.169 4.92-4.169 8.674 0 2.04.538 3.88 1.615 5.515 1.077 1.635 2.538 2.908 4.385 3.819 1.845.91 3.878 1.365 6.098 1.365 3.736 0 6.681-1.272 8.835-3.818v2.08c0 .596.484 1.08 1.082 1.08h7.658a1.08 1.08 0 0 0 1.082-1.078l.002-7.81V26.72c0-2.744-.622-5.059-1.862-6.947-1.243-1.886-2.957-3.309-5.143-4.263ZM81.97 14.078c-2.33 0-4.384.467-6.164 1.4-1.78.933-3.254 2.267-4.419 4-.856-1.821-2.076-3.177-3.658-4.066-1.583-.889-3.473-1.334-5.67-1.334-2.176 0-4.121.407-5.836 1.219a11.99 11.99 0 0 0-4.351 3.49l-.248-3.058a1.082 1.082 0 0 0-1.08-.992h-7.578c-.597 0-1.082.483-1.082 1.08v33.461c0 .598.485 1.081 1.082 1.081h8.12a1.08 1.08 0 0 0 1.083-1.08V26.994c.572-.988 1.307-1.75 2.209-2.288.9-.538 1.956-.807 3.164-.807 1.099 0 2 .148 2.704.444.703.297 1.24.852 1.615 1.663.373.812.56 1.954.56 3.423v19.848c0 .598.485 1.081 1.083 1.081h8.12c.598 0 1.083-.483 1.083-1.08V27.39c.527-1.097 1.241-1.953 2.142-2.568.902-.614 1.989-.922 3.264-.922 1.099 0 1.994.148 2.686.444.693.297 1.226.845 1.6 1.647.373.8.56 1.925.56 3.374v19.913c0 .598.484 1.081 1.081 1.081h8.156a1.08 1.08 0 0 0 1.08-1.08V27.84c0-4.873-.983-8.384-2.95-10.536-1.966-2.15-4.752-3.227-8.356-3.227ZM345.923 2.366h-8.912c-.594 0-1.076.481-1.076 1.075v45.867c0 .593.482 1.075 1.076 1.075h8.912c.594 0 1.077-.482 1.077-1.075V3.44c0-.594-.483-1.075-1.077-1.075Zm-18.846 0h-8.945c-.595 0-1.077.481-1.077 1.075v30.532c0 2.9-.653 5.048-1.941 6.388-1.288 1.338-3.222 2.017-5.749 2.017-5.241 0-7.789-2.749-7.789-8.405V3.441c0-.594-.482-1.075-1.077-1.075h-8.945c-.594 0-1.077.481-1.077 1.075v30.532c0 3.663.803 6.837 2.386 9.435 1.584 2.6 3.819 4.597 6.643 5.936 2.815 1.333 6.132 2.01 9.859 2.01 3.705 0 7.011-.677 9.825-2.01 2.825-1.34 5.048-3.336 6.611-5.937 1.561-2.597 2.352-5.771 2.352-9.434V3.441c0-.594-.482-1.075-1.076-1.075Z" /></svg>